# xmcd
#
# Track frame offsets: 
#        150
#        27916
#        49930
#        80630
#        110742
#        127585
#        157285
#        174891
#        211639
#        231931
#        257554
#        281552
#        299060
#        320025
#
# Disc length: 4625 seconds
#
# Revision: 1
# Processed by: cddbd v1.5.2PL0 Copyright (c) Steve Scherf et al.
# Submitted via: ExactAudioCopy v0.99pb5
#
DISCID=cc120f0e
DTITLE=Eddie Henderson - Anthology (Best of Blue Note)
DYEAR=1970
DGENRE=Jazz
TTITLE0=Kudu
TTITLE1=Inside you
TTITLE2=Involuntary bliss
TTITLE3=Explodition
TTITLE4=Acuphuncture
TTITLE5=Galaxy
TTITLE6=Hop scotch
TTITLE7=Butterfly
TTITLE8=Say you will
TTITLE9=Amoroso
TTITLE10=Prance on
TTITLE11=Open eyes
TTITLE12=Beyond forever
TTITLE13=Movin' on
EXTD=YEAR: 1970
EXTT0=
EXTT1=
EXTT2=
EXTT3=
EXTT4=
EXTT5=
EXTT6=
EXTT7=
EXTT8=
EXTT9=
EXTT10=
EXTT11=
EXTT12=
EXTT13=
PLAYORDER=
